<svg xmlns="http://www.w3.org/2000/svg" xmlns:xlink="http://www.w3.org/1999/xlink" width="512" height="512" version="1.1" viewBox="0 0 512 512"><title>Covalent</title><desc>Copyright 2017 Teradata</desc><g id="covalent" fill="none" fill-rule="evenodd" stroke="none" stroke-width="1"><g id="covalent-inner"><g id="Group-2" transform="translate(36.000000, 2.000000)"><polygon id="Polygon-1" fill="#F78E6A" points="220.218 0 440.436 127.143 425.397 381.428 220.218 508.571 13.671 381.428 0 127.143"/><path id="Combined-Shape" fill="#F67435" d="M220.267949,0.0289565105 L440.43559,127.142803 L425.397194,381.42841 L220.267949,508.540134 L220.267949,0.0289565105 Z"/></g><g id="Group-3" transform="translate(72.800003, 44.000000)"><path id="Combined-Shape" fill="#FFF" d="M183.5,0 L367,106 L354.469016,318 L183.5,424 L11.3918037,318 L4.47018738e-14,106 L183.5,0 Z M183.5,21.1640078 L18.3188464,116.582004 L29.7106501,307.417996 L183.5,402.835992 L337.28935,307.417996 L348.681154,116.582004 L183.5,21.1640078 Z"/><g id="Group-3-2" transform="translate(58.000000, 100.000000)"><path id="Combined-Shape" fill="#FFF" d="M58,150.511111 L0,117 L2.21525301e-14,39 L67.5,0 L125.5,33.5111111 L183.5,0 L251,39 L251,117 L193,150.511111 L193,217 L125.5,256 L58,217 L58,150.511111 Z M77,150.511111 L77,205.25 L125.5,233 L174,205.25 L174,150.511111 L125.5,122.488889 L77,150.511111 Z M135,105.822165 L182.5,133 L231,105.25 L231,49.75 L182.5,22 L135,49.1778351 L135,105.822165 Z"/><polygon id="Rectangle" fill="#FDC7B3" points="105.645 130.302 159.782 116.193 144.012 169.325 91.195 184.78" transform="translate(125.488429, 150.486382) rotate(-315.000000) translate(-125.488429, -150.486382)"/><polygon id="Rectangle-2" fill="#FDC7B3" points="163.236 30.394 217.128 15.706 201.405 68.563 148.871 83.197" transform="translate(182.999371, 49.451626) rotate(-315.000000) translate(-182.999371, -49.451626)"/><polygon id="Rectangle-3" fill="#F78E6A" points="152.719 118.833 205.378 104.325 164.75 63.697 112.216 78.33" transform="translate(158.797121, 91.264622) rotate(-315.000000) translate(-158.797121, -91.264622)"/></g></g><polygon id="Rectangle-4" fill="#FFF6EA" points="178.38 173.937 232.272 159.249 216.549 212.106 164.015 226.739" transform="translate(198.143700, 192.993939) rotate(-315.000000) translate(-198.143700, -192.993939)"/><polygon id="Rectangle-5" fill="#FFE3BF" points="249.525 228.951 234.213 282.414 193.585 241.786 209.022 188.448" transform="translate(221.554883, 235.431294) rotate(-315.000000) translate(-221.554883, -235.431294)"/></g></g></svg>