<svg xmlns="http://www.w3.org/2000/svg" xmlns:xlink="http://www.w3.org/1999/xlink" width="512" height="512" version="1.1" viewBox="0 0 512 512"><title>Listener</title><desc>Copyright Teradata, Inc.</desc><g id="listener" fill-rule="evenodd"><g><path id="Combined-Shape" d="M123.068976,165 L242,46.0689758 L242,481.931024 L122.068976,362 L211,362 L211,165 L123.068976,165 Z M270,46.0689758 L406.315492,182.384468 L406.315492,218 L299,218 L299,307 L406.315492,307 L406.315492,345.615532 L270,481.931024 L270,46.0689758 Z"/><path id="Combined-Shape" d="M423,236 L317,236 L317,291 L423,291 L423,325.713274 L488,264.063605 L423,201 L423,236 Z"/><polygon id="Rectangle" points="104.599 256 147 256 146.401 391 127.13 367.569 104 391" transform="translate(125.500000, 323.500000) rotate(-270.000000) translate(-125.500000, -323.500000)"/><polygon id="Rectangle" points="82.641 179 135 179 134.359 348 110.562 319.042 82 348" transform="translate(108.500000, 263.500000) rotate(-270.000000) translate(-108.500000, -263.500000)"/><polygon id="Rectangle" points="104.599 136 147 136 146.401 271 127.13 247.569 104 271" transform="translate(125.500000, 203.500000) rotate(-270.000000) translate(-125.500000, -203.500000)"/></g></g></svg>